<svg width="600" height="600" viewBox="0 0 600 600" fill="none" xmlns="http://www.w3.org/2000/svg">
<rect width="600" height="600" fill="#262626"/>
<path d="M299.5 180V271.636L377 306.301L299.5 180Z" fill="white"/>
<path d="M299.5 180L222 306.287L299.5 271.664V180Z" fill="white"/>
<path d="M299.5 365.697V428L377 320.754L299.5 365.697Z" fill="white"/>
<path d="M299.5 428V365.697L222 320.754L299.5 428Z" fill="white"/>
<path d="M299.5 351.258L377 306.301L299.5 271.65V351.258Z" fill="white"/>
<path d="M222 306.301L299.5 351.258V271.65L222 306.301Z" fill="white"/>
<path fill-rule="evenodd" clip-rule="evenodd" d="M299.5 351.258L222 306.301L299.5 180L376.987 306.287L299.5 351.258ZM227.139 302.65L298.246 186.779V271.016L227.139 302.65ZM226.078 305.805L298.246 273.744V347.648L226.078 305.805ZM300.726 273.744V347.648L372.839 305.805L300.726 273.744ZM300.726 271.016L371.834 302.65L300.726 186.779V271.016Z" fill="white"/>
<path fill-rule="evenodd" clip-rule="evenodd" d="M299.5 364.705L222 320.685L299.5 428L376.987 320.671L299.5 364.705ZM230.68 328.428L298.246 366.868V422.048L230.68 328.428ZM300.726 366.868V422.048L368.307 328.428L300.726 366.868Z" fill="white"/>
<path d="M299.592 111.141C311.496 111.141 321.162 101.566 321.162 89.5703C321.162 77.5008 311.496 68 299.592 68C287.596 68 278.021 77.5008 278.021 89.5703C278.021 101.566 287.596 111.141 299.592 111.141ZM448.231 172.524C460.134 172.524 469.636 163.023 469.636 150.953C469.636 138.958 460.134 129.383 448.231 129.383C436.161 129.383 426.659 138.958 426.659 150.953C426.659 163.023 436.161 172.524 448.231 172.524ZM509.612 321.162C521.518 321.162 531.017 311.661 531.017 299.592C531.017 287.522 521.518 278.021 509.612 278.021C497.617 278.021 488.044 287.522 488.044 299.592C488.044 311.661 497.617 321.162 509.612 321.162ZM448.231 469.8C460.134 469.8 469.636 460.226 469.636 448.231C469.636 436.161 460.134 426.659 448.231 426.659C436.161 426.659 426.659 436.161 426.659 448.231C426.659 460.226 436.161 469.8 448.231 469.8ZM299.592 531.184C311.496 531.184 321.162 521.682 321.162 509.612C321.162 497.542 311.496 488.044 299.592 488.044C287.596 488.044 278.021 497.542 278.021 509.612C278.021 521.682 287.596 531.184 299.592 531.184ZM151.028 469.8C163.023 469.8 172.598 460.226 172.598 448.231C172.598 436.161 163.023 426.659 151.028 426.659C138.958 426.659 129.457 436.161 129.457 448.231C129.457 460.226 138.958 469.8 151.028 469.8ZM89.5703 321.162C101.64 321.162 111.141 311.661 111.141 299.592C111.141 287.522 101.64 278.021 89.5703 278.021C77.5008 278.021 68 287.522 68 299.592C68 311.661 77.5008 321.162 89.5703 321.162ZM151.028 172.524C163.023 172.524 172.598 163.023 172.598 150.953C172.598 138.958 163.023 129.383 151.028 129.383C138.958 129.383 129.457 138.958 129.457 150.953C129.457 163.023 138.958 172.524 151.028 172.524Z" fill="white"/>
</svg>
