<svg width="600" height="600" viewBox="0 0 600 600" fill="none" xmlns="http://www.w3.org/2000/svg">
<rect width="600" height="600" fill="#F7931A"/>
<path d="M390.153 276.127C393.859 250.953 374.809 237.536 348.559 228.422L357.061 194.507L336.337 189.339L328.06 222.418L311.521 218.472L319.904 185.154L299.18 180L290.664 214.035L277.486 210.927V210.794L248.831 203.62L243.318 225.779C243.318 225.779 258.662 229.392 258.422 229.498C266.805 231.664 268.253 237.177 268.014 241.494L258.409 280.325L260.575 281.043L258.303 280.565L244.753 334.859C243.796 337.383 241.166 341.209 235.294 339.641C235.533 340.013 220.309 336.054 220.309 336.054L210 359.674L236.968 366.383L251.714 370.222L243.079 404.63L263.803 409.771L272.212 375.735L288.857 380.04L280.355 413.969L301.079 419.123L309.595 384.716C344.958 391.425 371.567 388.794 382.727 356.792C391.707 331.019 382.235 316.274 363.663 306.443C377.213 303.454 387.389 294.46 390.033 276.127H390.153ZM342.806 342.537C336.443 368.309 293.055 354.281 279.04 350.907L290.425 305.261C304.44 308.847 349.515 315.676 342.806 342.404V342.537ZM349.156 275.769C343.404 299.15 307.204 287.273 295.579 284.404L305.875 243.049C317.632 245.932 355.267 251.445 349.156 275.769Z" fill="white"/>
<path d="M299.592 111.141C311.496 111.141 321.162 101.566 321.162 89.5703C321.162 77.5008 311.496 68 299.592 68C287.596 68 278.021 77.5008 278.021 89.5703C278.021 101.566 287.596 111.141 299.592 111.141ZM448.231 172.524C460.134 172.524 469.636 163.023 469.636 150.953C469.636 138.958 460.134 129.383 448.231 129.383C436.161 129.383 426.659 138.958 426.659 150.953C426.659 163.023 436.161 172.524 448.231 172.524ZM509.612 321.162C521.518 321.162 531.017 311.661 531.017 299.592C531.017 287.522 521.518 278.021 509.612 278.021C497.617 278.021 488.044 287.522 488.044 299.592C488.044 311.661 497.617 321.162 509.612 321.162ZM448.231 469.8C460.134 469.8 469.636 460.226 469.636 448.231C469.636 436.161 460.134 426.659 448.231 426.659C436.161 426.659 426.659 436.161 426.659 448.231C426.659 460.226 436.161 469.8 448.231 469.8ZM299.592 531.184C311.496 531.184 321.162 521.682 321.162 509.612C321.162 497.542 311.496 488.044 299.592 488.044C287.596 488.044 278.021 497.542 278.021 509.612C278.021 521.682 287.596 531.184 299.592 531.184ZM151.028 469.8C163.023 469.8 172.598 460.226 172.598 448.231C172.598 436.161 163.023 426.659 151.028 426.659C138.958 426.659 129.457 436.161 129.457 448.231C129.457 460.226 138.958 469.8 151.028 469.8ZM89.5703 321.162C101.64 321.162 111.141 311.661 111.141 299.592C111.141 287.522 101.64 278.021 89.5703 278.021C77.5008 278.021 68 287.522 68 299.592C68 311.661 77.5008 321.162 89.5703 321.162ZM151.028 172.524C163.023 172.524 172.598 163.023 172.598 150.953C172.598 138.958 163.023 129.383 151.028 129.383C138.958 129.383 129.457 138.958 129.457 150.953C129.457 163.023 138.958 172.524 151.028 172.524Z" fill="white"/>
</svg>
