<svg width="600" height="600" viewBox="0 0 600 600" fill="none" xmlns="http://www.w3.org/2000/svg">
<rect width="600" height="600" fill="#34C759"/>
<path d="M286.578 173.984C286.578 166.789 292.367 161 299.562 161C306.758 161 312.547 166.789 312.547 173.984V195.625H342.844C352.42 195.625 360.156 203.362 360.156 212.938C360.156 222.513 352.42 230.25 342.844 230.25H280.681C267.21 230.25 256.281 241.179 256.281 254.65C256.281 266.823 265.208 277.102 277.219 278.833L326.776 285.921C355.882 290.086 377.469 314.973 377.469 344.35C377.469 376.973 351.013 403.375 318.444 403.375H312.547V425.016C312.547 432.211 306.758 438 299.562 438C292.367 438 286.578 432.211 286.578 425.016V403.375H247.625C238.049 403.375 230.312 395.638 230.312 386.062C230.312 376.487 238.049 368.75 247.625 368.75H318.444C331.915 368.75 342.844 357.821 342.844 344.35C342.844 332.177 333.917 321.898 321.906 320.167L272.349 313.079C243.243 308.968 221.656 284.027 221.656 254.65C221.656 222.081 248.112 195.625 280.681 195.625H286.578V173.984Z" fill="white"/>
<path d="M299.592 111.141C311.496 111.141 321.162 101.566 321.162 89.5703C321.162 77.5008 311.496 68 299.592 68C287.596 68 278.021 77.5008 278.021 89.5703C278.021 101.566 287.596 111.141 299.592 111.141ZM448.231 172.524C460.134 172.524 469.636 163.023 469.636 150.953C469.636 138.958 460.134 129.383 448.231 129.383C436.161 129.383 426.659 138.958 426.659 150.953C426.659 163.023 436.161 172.524 448.231 172.524ZM509.612 321.162C521.518 321.162 531.017 311.661 531.017 299.592C531.017 287.522 521.518 278.021 509.612 278.021C497.617 278.021 488.044 287.522 488.044 299.592C488.044 311.661 497.617 321.162 509.612 321.162ZM448.231 469.8C460.134 469.8 469.636 460.226 469.636 448.231C469.636 436.161 460.134 426.659 448.231 426.659C436.161 426.659 426.659 436.161 426.659 448.231C426.659 460.226 436.161 469.8 448.231 469.8ZM299.592 531.184C311.496 531.184 321.162 521.682 321.162 509.612C321.162 497.542 311.496 488.044 299.592 488.044C287.596 488.044 278.021 497.542 278.021 509.612C278.021 521.682 287.596 531.184 299.592 531.184ZM151.028 469.8C163.023 469.8 172.598 460.226 172.598 448.231C172.598 436.161 163.023 426.659 151.028 426.659C138.958 426.659 129.457 436.161 129.457 448.231C129.457 460.226 138.958 469.8 151.028 469.8ZM89.5703 321.162C101.64 321.162 111.141 311.661 111.141 299.592C111.141 287.522 101.64 278.021 89.5703 278.021C77.5008 278.021 68 287.522 68 299.592C68 311.661 77.5008 321.162 89.5703 321.162ZM151.028 172.524C163.023 172.524 172.598 163.023 172.598 150.953C172.598 138.958 163.023 129.383 151.028 129.383C138.958 129.383 129.457 138.958 129.457 150.953C129.457 163.023 138.958 172.524 151.028 172.524Z" fill="white"/>
</svg>
